<?xml version="1.0" encoding="UTF-8" standalone="no"?>
<!-- Created with Inkscape (http://www.inkscape.org/) -->

<svg
   width="91mm"
   height="91mm"
   viewBox="0 0 91 91"
   version="1.1"
   id="svg5"
   xml:space="preserve"
   inkscape:version="1.2.2 (b0a8486541, 2022-12-01)"
   sodipodi:docname="klaus-source.svg"
   xmlns:inkscape="http://www.inkscape.org/namespaces/inkscape"
   xmlns:sodipodi="http://sodipodi.sourceforge.net/DTD/sodipodi-0.dtd"
   xmlns:xlink="http://www.w3.org/1999/xlink"
   xmlns="http://www.w3.org/2000/svg"
   xmlns:svg="http://www.w3.org/2000/svg"><sodipodi:namedview
     id="namedview7"
     pagecolor="#ffffff"
     bordercolor="#000000"
     borderopacity="0.25"
     inkscape:showpageshadow="2"
     inkscape:pageopacity="0.0"
     inkscape:pagecheckerboard="0"
     inkscape:deskcolor="#d1d1d1"
     inkscape:document-units="mm"
     showgrid="false"
     inkscape:zoom="0.5"
     inkscape:cx="72"
     inkscape:cy="337"
     inkscape:window-width="1854"
     inkscape:window-height="1011"
     inkscape:window-x="0"
     inkscape:window-y="0"
     inkscape:window-maximized="1"
     inkscape:current-layer="layer1"
     showguides="true" /><defs
     id="defs2"><linearGradient
       inkscape:collect="always"
       id="linearGradient12420"><stop
         style="stop-color:#fcd4be;stop-opacity:1;"
         offset="0"
         id="stop12416" /><stop
         style="stop-color:#e3af93;stop-opacity:1;"
         offset="1"
         id="stop12418" /></linearGradient><linearGradient
       inkscape:collect="always"
       id="linearGradient8822"><stop
         style="stop-color:#e36872;stop-opacity:1;"
         offset="0"
         id="stop8818" /><stop
         style="stop-color:#c6303a;stop-opacity:1;"
         offset="1"
         id="stop8820" /></linearGradient><linearGradient
       id="linearGradient3315"><stop
         style="stop-color:#4b5459;stop-opacity:0;"
         offset="0"
         id="stop3329" /><stop
         style="stop-color:#4b5459;stop-opacity:1;"
         offset="1"
         id="stop3331" /></linearGradient><linearGradient
       id="linearGradient3315-1"><stop
         style="stop-color:#69757c;stop-opacity:1;"
         offset="0"
         id="stop3313" /><stop
         style="stop-color:#3c3c3c;stop-opacity:1;"
         offset="1"
         id="stop3311" /></linearGradient><linearGradient
       inkscape:collect="always"
       xlink:href="#linearGradient3315-1"
       id="linearGradient3327"
       x1="36.956745"
       y1="62.19162"
       x2="108.35898"
       y2="129.81599"
       gradientUnits="userSpaceOnUse"
       spreadMethod="pad"
       gradientTransform="translate(-27.054548,-51.540495)" /><linearGradient
       inkscape:collect="always"
       xlink:href="#linearGradient8822"
       id="linearGradient8824"
       x1="62.141788"
       y1="54.489067"
       x2="81.313705"
       y2="69.769676"
       gradientUnits="userSpaceOnUse"
       gradientTransform="translate(-27.054548,-51.540495)" /><linearGradient
       inkscape:collect="always"
       xlink:href="#linearGradient12420"
       id="linearGradient12422"
       x1="47.336243"
       y1="86.524521"
       x2="95.15786"
       y2="105.18954"
       gradientUnits="userSpaceOnUse"
       gradientTransform="translate(-27.108676,-51.622149)" /></defs><g
     inkscape:label="Слой 1"
     inkscape:groupmode="layer"
     id="layer1"><g
       id="g6623"><path
         style="fill:#f7f7cd;fill-opacity:1;stroke:#3c3c3c;stroke-width:4.05299;stroke-linecap:round;stroke-linejoin:round;stroke-miterlimit:4;stroke-dasharray:none;stroke-opacity:1"
         d="M 23.501472,3.5616321 H 68.138024 L 85.572102,20.99571 V 87.237144 H 23.368664 Z"
         id="path5368" /><path
         style="fill:none;fill-opacity:1;stroke:#3c3c3c;stroke-width:4.13441;stroke-linecap:round;stroke-linejoin:round;stroke-miterlimit:4;stroke-dasharray:none;stroke-opacity:1"
         d="M 68.142159,3.6602195 V 21.555107 h 17.376457"
         id="path5687" /><path
         style="fill:#eaeaea;fill-opacity:1;stroke:#374d9e;stroke-width:4;stroke-linecap:round;stroke-linejoin:round;stroke-miterlimit:4;stroke-dasharray:none;stroke-opacity:1"
         d="M 33.88072,35.071906 H 74.28778"
         id="path6458" /><path
         style="fill:#eaeaea;fill-opacity:1;stroke:#374d9e;stroke-width:4;stroke-linecap:round;stroke-linejoin:round;stroke-miterlimit:4;stroke-dasharray:none;stroke-opacity:1"
         d="M 33.88072,75.652635 H 74.28778"
         id="path6470" /><path
         style="fill:#eaeaea;fill-opacity:1;stroke:#374d9e;stroke-width:4;stroke-linecap:round;stroke-linejoin:round;stroke-miterlimit:4;stroke-dasharray:none;stroke-opacity:1"
         d="M 33.88072,45.217088 H 74.28778"
         id="path6472" /><path
         style="fill:#eaeaea;fill-opacity:1;stroke:#374d9e;stroke-width:4;stroke-linecap:round;stroke-linejoin:round;stroke-miterlimit:4;stroke-dasharray:none;stroke-opacity:1"
         d="M 33.88072,55.36227 H 74.28778"
         id="path6474" /><path
         style="fill:#eaeaea;fill-opacity:1;stroke:#374d9e;stroke-width:4;stroke-linecap:round;stroke-linejoin:round;stroke-miterlimit:4;stroke-dasharray:none;stroke-opacity:1"
         d="M 33.88072,65.507453 H 74.28778"
         id="path6476" /></g><g
       id="g1926"
       transform="matrix(0.83536935,0,0,0.83536935,-4.3262926,7.9136476)"><path
         style="fill:url(#linearGradient3327);fill-opacity:1;stroke-width:0.353;stroke-dasharray:none"
         d="m 39.154511,90.086745 c -0.31006,-0.36197 -0.65314,-0.91215 -0.7624,-1.22263 -0.13165,-0.3741 -0.80551,-0.63639 -1.9978,-0.7776 -5.56962,-0.65964 -11.49796,-6.16499 -15.23263,-14.14581 -1.01225,-2.16314 -1.12463,-2.27003 -3.17084,-3.01611 -2.70192,-0.98517 -5.56398,-3.29033 -6.58301,-5.30208 -0.91913,-1.81453 -1.05559,-4.86987 -0.36649,-8.20612 0.3375,-1.63404 0.3356,-2.19431 -0.009,-2.66707 -1.01115,-1.38704 -2.233,-4.388 -2.53028,-6.21455 -0.70246,-4.316087 1.16248,-9.665708 4.70257,-13.489434 1.09758,-1.185509 1.99559,-2.259743 1.99559,-2.387188 0,-0.127444 -0.34803,-0.702451 -0.7734,-1.277793 -1.02764,-1.389956 -1.00855,-3.812013 0.0492,-6.237397 0.82347,-1.88827 3.23903,-4.448855 4.73257,-5.016696 0.45805,-0.174149 1.70785,-1.637231 2.79756,-3.274977 6.15385,-9.248662 15.72219,-15.713204 24.248904,-16.382986 5.584638,-0.438679 14.789626,1.346719 21.266411,4.124828 l 3.41303,1.463963 1.32524,-0.823962 c 1.067036,-0.663424 1.817636,-0.823961 3.852496,-0.823961 2.24592,0 2.69719,0.119445 4.05395,1.073006 6.12062,4.301736 3.31256,13.567272 -4.11176,13.567272 -3.01077,0 -4.826486,-1.156018 -7.256926,-4.620298 l -0.55415,-0.789872 -1.38613,0.676613 c -0.76237,0.372137 -1.43962,0.965661 -1.50499,1.318942 -0.19753,1.067363 1.73169,3.422876 3.72459,4.547599 4.417386,2.49302 6.676786,7.864836 4.683236,11.134571 -0.38733,0.635279 -0.70424,1.335301 -0.70424,1.555604 0,0.220302 0.85468,1.296592 1.89929,2.391754 5.23879,5.492333 6.28721,13.005544 2.62203,18.790062 l -1.05655,1.66749 0.60049,2.38946 c 1.11517,4.43744 0.19579,7.98207 -2.71703,10.47533 -1.543166,1.3209 -4.769836,3.02664 -5.725356,3.02664 -0.29714,0 -1.34851,1.19777 -2.33637,2.66172 -6.6452,9.84776 -14.887659,15.38713 -24.169815,16.24341 -2.12977,0.19647 -2.5287,0.1394 -3.01792,-0.43173 z m 10.235811,-5.25873 c 4.680832,-2.17892 10.331337,-7.50414 13.973174,-13.16879 l 2.0497,-3.18817 2.37568,-0.72159 c 1.70619,-0.51824 2.85188,-1.15272 4.06545,-2.25144 1.636696,-1.48181 1.693926,-1.6009 1.822426,-3.79268 0.0969,-1.65217 -0.0642,-2.82516 -0.59695,-4.34654 -0.963716,-2.75227 -0.930196,-3.58944 0.17265,-4.31205 1.70833,-1.11935 2.4442,-3.12464 2.44286,-6.657027 -0.001,-2.876589 -0.10561,-3.373938 -1.11206,-5.291667 -1.06565,-2.030521 -3.435706,-4.735777 -3.815906,-4.355578 -0.10027,0.100267 0.0552,0.962541 0.34546,1.916162 0.29027,0.953626 0.69834,3.116185 0.90681,4.805694 0.31377,2.542872 0.28402,3.442748 -0.17278,5.225816 -1.40275,5.47547 -5.91975,8.53015 -11.802159,7.98138 -1.337519,-0.12477 -4.261415,-0.88563 -6.845456,-1.78132 -7.395308,-2.5634 -11.60281,-2.51389 -19.10323,0.22479 -3.40845,1.24454 -4.30487,1.43011 -7.07775,1.46515 -2.54349,0.0321 -3.49432,-0.10762 -4.78042,-0.7027 -2.25207,-1.04204 -4.10031,-2.7702 -5.2082,-4.86986 -0.85873,-1.62743 -0.94584,-2.14264 -0.92986,-5.499811 0.0114,-2.388916 0.24312,-4.558016 0.65269,-6.108884 0.34928,-1.322595 0.53688,-2.502905 0.41687,-2.62291 -0.40807,-0.408068 -2.93855,2.434269 -3.95316,4.440347 -0.88977,1.759236 -1.01066,2.378357 -1.01013,5.173391 6.7e-4,3.461677 0.59598,5.139987 2.43066,6.852467 1.08637,1.01401 1.11919,1.67744 0.21072,4.26003 -0.90219,2.56477 -0.91093,5.4797 -0.0208,6.93954 0.82368,1.35083 3.36919,2.90356 5.78916,3.53129 0.97715,0.25347 1.92688,0.61109 2.1105,0.79471 0.18363,0.18363 0.857,1.53692 1.49639,3.00732 2.2591,5.19527 6.25072,10.09156 9.47384,11.62104 2.48981,1.18148 4.74623,1.42733 7.08007,0.77139 3.6681,-1.03095 3.691909,-1.03295 4.422081,-0.37215 0.381258,0.34503 0.693194,0.92022 0.693194,1.27821 0,0.91534 1.182924,0.83231 3.498466,-0.24556 z m -8.439641,-20.95262 c -2.83053,-0.86101 -5.99494,-3.46464 -5.99494,-4.93255 0,-2.18198 1.71186,-2.35594 4.06319,-0.41292 3.2905,2.71911 6.767773,2.6544 10.261106,-0.19096 1.041435,-0.84826 2.109283,-1.54229 2.372991,-1.54229 0.709838,0 1.647162,1.1776 1.647162,2.06941 0,1.18372 -2.876783,3.76554 -5.138748,4.61185 -1.988358,0.74394 -5.445301,0.93449 -7.210761,0.39746 z m -8.27339,-12.32401 c 8.10067,-3.108815 13.515852,-3.206333 21.70405,-0.39086 7.519265,2.58547 11.866525,1.58726 13.406305,-3.078335 0.71052,-2.152886 -0.19307,-7.944178 -1.83813,-11.780869 l -0.69535,-1.621738 -5.006847,-0.229054 C 57.49355,34.32455 47.988993,34.220895 39.126081,34.220185 c -13.39111,-0.0011 -16.19837,0.0827 -16.61137,0.495701 -0.75802,0.758012 -2.27297,5.694082 -2.70251,8.805417 -0.44572,3.228463 -0.10811,5.029882 1.28858,6.875572 2.11394,2.79352 6.23485,3.2045 11.57651,1.15451 z m -0.5047,-6.946811 c -3.3987,-2.859815 0.0109,-8.206507 4.02013,-6.304023 3.66192,1.737695 2.45546,7.207233 -1.58975,7.207233 -0.94128,0 -1.68581,-0.276695 -2.43038,-0.90321 z m 19.087411,0.352629 c -0.432333,-0.302821 -1.03873,-1.039184 -1.347541,-1.636359 -1.568781,-3.033685 2.051932,-6.647914 5.087345,-5.07824 1.525771,0.789005 2.180939,1.89049 2.180939,3.666645 0,2.170307 -1.428228,3.598535 -3.598534,3.598535 -0.844878,0 -1.889873,-0.247763 -2.322209,-0.550581 z M 70.043356,29.862868 c 0.52318,-0.382555 0.61034,-0.772984 0.44604,-1.99793 -0.22256,-1.659315 -0.99546,-2.901537 -2.5082,-4.03119 -0.95704,-0.714686 -1.37179,-0.729019 -23.815693,-0.822983 l -22.841682,-0.09563 c 0,0 -0.784868,0.534121 -1.1773,0.801185 -1.65561,1.1267 -2.49685,2.389752 -2.72511,4.091547 -0.36491,2.720636 -2.34357,2.530472 26.32955,2.530472 20.949175,0 25.761155,-0.08702 26.292395,-0.475471 z m 7.410006,-14.842571 c 1.26697,-0.529375 2.30606,-2.085338 2.30384,-3.449856 -0.002,-1.365463 -1.24713,-2.995923 -2.63796,-3.454938 -2.36518,-0.780579 -4.769056,0.980948 -4.769056,3.494694 0,1.573074 0.790646,2.769361 2.250126,3.404562 1.39328,0.606392 1.41491,0.606434 2.85305,0.0055 z"
         id="path2609"
         sodipodi:nodetypes="csssssscsssscscsscssssscscssssscsssssccsscssccscsssssssscsscsssssssssssssssssssssssssssscscsssssssssssssssssscssssccssscc" /><path
         style="fill:#f8f8f8;fill-opacity:1;stroke-width:0.356931;stroke-dasharray:none"
         d="m 19.600587,29.933631 c -2.099448,-0.280199 -2.205477,-0.381904 -2.021097,-1.938697 0.201332,-1.699948 0.955048,-2.895647 2.574767,-4.084629 l 1.299157,-0.95367 22.69746,0.206682 22.697456,0.206679 1.005605,0.624118 c 1.890667,1.173427 3.280272,4.767831 2.192414,5.670989 -0.404577,0.335889 -3.882917,0.396399 -24.70822,0.429834 -13.330545,0.0214 -24.912439,-0.05119 -25.737542,-0.161306 z"
         id="path7146" /><path
         style="fill:#f8f8f8;fill-opacity:1;stroke-width:0.356931;stroke-dasharray:none"
         d="m 74.545075,14.811496 c -2.59688,-1.128935 -2.558465,-5.16413 0.061,-6.4071451 1.159526,-0.5502301 2.209924,-0.4249843 3.371286,0.4019788 2.176264,1.5496353 2.000287,4.4300063 -0.358518,5.8681883 -1.018138,0.620768 -1.873255,0.658873 -3.073765,0.136978 z"
         id="path8804" /><path
         style="fill:#f8f8f8;fill-opacity:1;stroke-width:0.356931;stroke-dasharray:none"
         d="m 45.877786,84.61574 c -0.504619,-1.3955 -1.269291,-1.644692 -3.307784,-1.077941 -4.008199,1.11438 -5.859862,1.051017 -8.716907,-0.298281 -3.173637,-1.498814 -6.948656,-6.15038 -9.66517,-11.909383 l -1.333508,-2.827038 -1.946939,-0.587129 c -2.405947,-0.725548 -4.460084,-1.870845 -5.519455,-3.077403 -1.33686,-1.522598 -1.434758,-3.97338 -0.303003,-7.585244 0.761669,-2.430775 0.697656,-2.988625 -0.499481,-4.352737 -1.789501,-2.039102 -2.013984,-2.693609 -2.131517,-6.214724 l -0.105725,-3.167351 0.951741,-1.91571 c 0.985726,-1.984119 3.184675,-4.73224 3.523562,-4.403543 0.106301,0.103103 -0.02278,1.246794 -0.286856,2.54153 -0.314508,1.542012 -0.485294,3.599936 -0.495097,5.965716 -0.01368,3.29873 0.04146,3.727545 0.63627,4.949298 0.836991,1.719192 3.509423,4.395417 5.225447,5.232861 1.216647,0.593741 1.664346,0.65279 4.949296,0.65279 h 3.61165 l 4.146708,-1.387181 c 8.045908,-2.691561 10.419953,-2.658843 19.879506,0.273973 4.291608,1.330561 6.383448,1.631739 8.765878,1.262092 4.41034,-0.684289 7.385902,-3.390143 8.687771,-7.90031 0.529654,-1.83492 0.415909,-5.10023 -0.289136,-8.30035 -0.785794,-3.566628 -0.770054,-3.424935 -0.366194,-3.296703 0.648652,0.20596 3.165922,3.766593 3.749201,5.303176 0.473795,1.248154 0.541195,1.897637 0.444206,4.280475 -0.134982,3.316374 -0.704749,4.886991 -2.181418,6.013301 -0.809564,0.617488 -0.968145,0.903015 -0.968145,1.743173 0,0.552601 0.173644,1.496886 0.385874,2.098413 0.649086,1.839704 0.956016,4.05661 0.779851,5.632709 -0.151304,1.353664 -0.297812,1.627593 -1.496869,2.798713 -1.386306,1.35401 -3.210311,2.332074 -5.330246,2.858177 -1.18532,0.294161 -1.336511,0.444174 -3.049598,3.02587 -4.321474,6.51265 -9.16074,11.159773 -14.148638,13.586881 -2.689273,1.308594 -3.14791,1.319043 -3.595275,0.08188 z M 47.59145,63.754916 c 2.602481,-0.718156 5.746636,-3.401367 5.746636,-4.904155 0,-0.921022 -0.919848,-2.175544 -1.595162,-2.175544 -0.267417,0 -1.212059,0.534339 -2.09921,1.187418 -4.234431,3.117212 -6.461894,3.288633 -10.127067,0.779359 -2.387153,-1.63431 -3.121382,-1.878115 -3.973856,-1.319556 -1.317522,0.863274 -0.735306,2.781861 1.348568,4.443965 3.052027,2.43431 6.65689,3.104237 10.700091,1.988513 z"
         id="path8806" /><path
         style="fill:url(#linearGradient8824);fill-opacity:1;stroke-width:0.252388;stroke-dasharray:none"
         d="m 25.125262,19.287783 c -0.248189,-0.156895 -0.240117,-0.259368 0.06506,-0.82605 0.191619,-0.355812 0.685525,-1.061334 1.097568,-1.567826 0.412046,-0.506492 1.021226,-1.257699 1.353733,-1.669349 1.0986,-1.360082 4.364384,-4.492529 5.806789,-5.569709 0.780336,-0.58275 1.532009,-1.16668 1.670386,-1.297628 0.356751,-0.337592 3.163398,-1.968172 4.288531,-2.491512 1.398153,-0.650333 4.722307,-1.646007 6.293479,-1.885072 0.756256,-0.11507 1.990601,-0.208097 2.742994,-0.206729 1.451075,0.0026 6.968236,0.619246 8.556522,0.956294 0.520221,0.110395 1.265621,0.246769 1.656439,0.303054 0.390819,0.05628 0.757635,0.178469 0.815145,0.271523 0.05751,0.09305 0.3499,0.169188 0.649753,0.169188 0.299852,0 0.597797,0.08513 0.662101,0.189172 0.0643,0.104044 0.367273,0.189171 0.673267,0.189171 0.305993,0 0.55635,0.08513 0.55635,0.189175 0,0.104042 0.149674,0.189172 0.332607,0.189172 0.84599,0 6.169689,2.170321 6.808637,2.775688 0.527606,0.49988 -0.04784,1.386094 -0.900033,1.386094 -0.244533,0 -0.748594,0.0959 -1.120135,0.213111 -2.732773,0.862116 -3.659579,1.421508 -4.592235,2.771733 -0.56982,0.824939 -0.615294,1.001582 -0.59517,2.311971 0.01744,1.134621 0.120817,1.608238 0.5162,2.36465 0.271923,0.520224 0.494763,1.052269 0.495197,1.182325 5.29e-4,0.187608 -3.878424,0.235865 -18.774527,0.233569 -11.48321,-0.0019 -18.885362,-0.07246 -19.058658,-0.182015 z"
         id="path8816" /><path
         style="fill:url(#linearGradient12422);fill-opacity:1;stroke-width:0.356931;stroke-dasharray:none"
         d="m 24.781138,52.763735 c -3.228364,-0.78593 -5.228064,-3.50763 -5.207495,-7.087679 0.01823,-3.174317 1.37704,-8.678711 2.662926,-10.78729 l 0.530232,-0.869471 17.192707,7.94e-4 c 9.455989,5.29e-4 19.079102,0.07913 21.384691,0.174757 l 4.191982,0.173866 0.825918,2.09006 c 0.94575,2.393315 1.465979,4.504058 1.891448,7.674232 0.247033,1.840656 0.228761,2.460072 -0.10654,3.611649 -0.587362,2.017292 -1.793703,3.507762 -3.524395,4.354512 -1.37259,0.67154 -1.63684,0.70832 -4.200044,0.5846 -2.392709,-0.11549 -3.070365,-0.26594 -5.410591,-1.20128 -4.408014,-1.76178 -6.087594,-2.08033 -10.968712,-2.08033 -4.847154,0 -6.531367,0.3149 -10.886242,2.03548 -3.504586,1.38463 -6.31045,1.82883 -8.375885,1.32601 z m 11.297597,-7.766049 c 2.114089,-0.959684 2.870861,-3.501827 1.602674,-5.383692 -0.781026,-1.158965 -1.618684,-1.572889 -3.193016,-1.577811 -1.027917,-0.0032 -1.433507,0.147119 -2.190784,0.812017 -2.255314,1.980192 -1.691574,5.295146 1.067692,6.278343 1.346811,0.479904 1.375383,0.478547 2.713434,-0.128857 z m 18.619914,0.160464 c 2.742512,-1.145894 3.299614,-4.370123 1.090274,-6.30995 -0.798605,-0.701185 -1.13942,-0.815961 -2.422903,-0.815961 -1.37826,0 -1.573774,0.0802 -2.532224,1.038645 -0.956575,0.956572 -1.038646,1.155777 -1.038646,2.521003 0,1.220211 0.127762,1.634196 0.722445,2.340936 0.734277,0.872638 1.967463,1.560808 2.830917,1.579771 0.262221,0.0058 0.869786,-0.153739 1.350137,-0.354444 z"
         id="path12414" /><ellipse
         style="fill:#575b5b;fill-opacity:1;stroke-width:0.405837;stroke-dasharray:none"
         id="path21946"
         cx="53.43309"
         cy="41.704941"
         rx="4.1077938"
         ry="4.0107841" /><ellipse
         style="fill:#5a5e5e;fill-opacity:1;stroke-width:0.405837;stroke-dasharray:none"
         id="ellipse23259"
         cx="34.814705"
         cy="41.58868"
         rx="4.1077938"
         ry="4.0107841" /></g></g></svg>
