<?xml version="1.0" encoding="UTF-8" standalone="no"?>
<!-- Created with Inkscape (http://www.inkscape.org/) -->

<svg
   width="48.825363mm"
   height="135.97716mm"
   viewBox="0 0 48.825363 135.97716"
   version="1.1"
   id="svg5"
   inkscape:version="1.1.2 (0a00cf5339, 2022-02-04)"
   sodipodi:docname="mouse00.svg"
   inkscape:export-filename="/home/czaerlag/working/dev/klauslang/src/assets/doer/mouse/mouse00-75.png"
   inkscape:export-xdpi="39.016605"
   inkscape:export-ydpi="39.016605"
   xmlns:inkscape="http://www.inkscape.org/namespaces/inkscape"
   xmlns:sodipodi="http://sodipodi.sourceforge.net/DTD/sodipodi-0.dtd"
   xmlns="http://www.w3.org/2000/svg"
   xmlns:svg="http://www.w3.org/2000/svg">
  <sodipodi:namedview
     id="namedview7"
     pagecolor="#ffffff"
     bordercolor="#666666"
     borderopacity="1.0"
     inkscape:pageshadow="2"
     inkscape:pageopacity="0.0"
     inkscape:pagecheckerboard="0"
     inkscape:document-units="mm"
     showgrid="false"
     showguides="true"
     inkscape:guide-bbox="true"
     inkscape:zoom="1.5037599"
     inkscape:cx="41.894986"
     inkscape:cy="238.40242"
     inkscape:window-width="1850"
     inkscape:window-height="1016"
     inkscape:window-x="0"
     inkscape:window-y="27"
     inkscape:window-maximized="1"
     inkscape:current-layer="layer1"
     fit-margin-top="0"
     fit-margin-left="0"
     fit-margin-right="0"
     fit-margin-bottom="0">
    <sodipodi:guide
       position="27.920727,54.337347"
       orientation="1,0"
       id="guide156344" />
    <sodipodi:guide
       position="27.249925,55.942872"
       orientation="0,-1"
       id="guide156597" />
  </sodipodi:namedview>
  <defs
     id="defs2" />
  <g
     inkscape:label="Слой 1"
     inkscape:groupmode="layer"
     id="layer1"
     transform="translate(-76.750125,-10.35405)">
    <path
       id="path854"
       style="fill:#000000;fill-opacity:1;stroke:#000000;stroke-width:5.53701;stroke-miterlimit:4;stroke-dasharray:none;stroke-opacity:1"
       d="m 403.02561,109.90557 c -6.79838,-2.8852 -9.0647,-11.464679 -4.14603,-15.695532 3.08217,-2.651168 5.31134,-2.937233 9.17398,-1.177285 5.06282,2.306778 7.16522,10.582797 3.72207,14.651887 -2.05821,2.43238 -5.93385,3.4161 -8.75002,2.22093 v 0"
       transform="scale(0.26458333)" />
    <path
       id="path16484"
       style="fill:#000000;fill-opacity:1;stroke:#000000;stroke-width:5.53701;stroke-miterlimit:4;stroke-dasharray:none;stroke-opacity:1"
       d="m 355.02688,110.38035 c -6.10382,-3.14635 -5.90631,-11.987066 0.35301,-15.803807 4.04995,-2.469521 6.73655,-2.430278 10.01204,0.14623 7.50648,5.904597 -1.85416,20.044767 -10.36513,15.657577 h 8e-5 v 0"
       transform="scale(0.26458333)" />
    <path
       id="path16480"
       style="fill:#000000;fill-opacity:1;stroke:#000000;stroke-width:1.51614;stroke-miterlimit:4;stroke-dasharray:none;stroke-opacity:1"
       d="m 99.789501,90.525871 c 0,0 0.218499,2.746171 0.236559,4.050833 0.0385,2.783845 0.59397,6.052386 -1.122869,13.572836 -1.25286,5.48805 -4.31083,11.1575 -5.216609,18.40243 -0.31876,2.54957 -0.32687,5.62303 0.0378,8.73928 0.67035,5.72903 3.75969,10.72506 3.6227,10.34672 -0.7807,-2.15612 -1.42096,-4.67281 -2.01913,-7.18522 -0.87727,-3.68464 -0.64639,-8.29401 -0.0931,-11.04784 0.68451,-3.40727 0.95217,-3.73421 3.4455,-8.97075 2.879968,-6.0486 4.063718,-9.60946 4.656868,-12.66286 0.59412,-3.05838 0.86167,-4.83874 1.14911,-10.455262 l 0.18452,-4.927703 z"
       sodipodi:nodetypes="csssssssssccc" />
    <path
       id="path16478"
       style="fill:#000000;fill-opacity:1;stroke:none;stroke-width:0;stroke-miterlimit:4;stroke-dasharray:none;stroke-opacity:1"
       transform="scale(0.26458333)"
       d="m 377.14382,341.12858 c -2.46564,-0.35241 -7.38339,-1.14788 -7.38339,-1.14788 -46.17376,-7.17846 -72.7833,-51.46651 -68.36678,-113.7874 0.83856,-11.83276 4.00222,-30.75782 6.03589,-36.10677 0.73974,-1.94567 0.20009,-2.90552 -3.60601,-6.41387 -2.56036,-2.36005 -5.86683,-6.95339 -7.72588,-10.73277 -3.04166,-6.18359 -3.24993,-7.28086 -3.24993,-17.12257 0,-9.29691 0.30833,-11.1733 2.66041,-16.19074 4.45912,-9.51213 14.22639,-18.45657 23.83959,-21.83127 3.35838,-1.17895 3.58576,-1.57796 5.6194,-9.86112 1.16567,-4.74785 4.17245,-13.019954 6.68173,-18.382453 7.81856,-15.291156 2.63422,-6.025879 9.30857,-17.02729 9.87772,-12.547374 3.60263,-4.857365 12.6667,-16.061552 10.12497,-10.213444 17.04794,-13.944586 26.90714,-14.501684 11.53353,-0.6517 20.12504,3.655525 31.81648,15.950668 7.12381,8.262081 3.97244,4.317974 8.64314,10.748674 0.88959,1.357678 2.91073,4.05298 3.99337,5.887967 5.025,8.386636 2.60761,4.206471 7.08114,12.983887 4.1201,8.210687 7.78563,19.246153 8.71528,24.820493 0.63776,3.82403 1.02494,4.20329 6.90618,6.76545 9.30373,4.05313 15.87908,10.32259 20.38216,19.43398 3.61399,7.31242 3.7787,8.0839 3.77851,17.69758 -1.9e-4,9.02144 -0.29178,10.64615 -2.84508,15.84931 -1.56464,3.18859 -5.08361,8.03622 -7.81991,10.7725 -4.79241,4.79242 -4.9349,5.0967 -3.88147,8.28859 5.36104,16.24416 7.58688,50.34658 4.61065,70.64143 -5.38242,36.70303 -23.21832,62.6106 -50.76333,73.7365 -3.44133,1.39004 -8.05534,3.37354 -11.07314,4.29747 0,0 -9.4986,1.14358 -11.70128,1.37901 -3.90015,0.1938 -7.32822,0.44146 -11.23014,-0.0861 z m 21.47959,-16.8983 c 22.96686,-5.95132 39.22839,-24.25093 46.29105,-52.09278 3.26385,-12.86646 4.6097,-30.89174 3.40769,-45.63934 -0.90402,-11.09152 -4.13699,-29.53248 -5.5895,-31.88264 -0.39938,-0.64623 -2.54786,-0.83619 -5.50125,-0.48643 -24.24446,2.8714 -48.00756,-19.73308 -45.54206,-43.3216 0.67846,-6.49123 3.04335,-13.66865 5.33971,-16.20611 2.21322,-2.44559 7.78084,-2.33749 10.31868,0.20035 2.38515,2.38514 2.53455,5.47642 0.49999,10.34576 -7.70797,18.4478 12.56992,39.16459 32.59813,33.3037 10.71586,-3.1358 16.9203,-11.30128 16.87993,-22.21518 -0.0556,-15.00669 -10.47685,-25.04072 -27.19748,-26.18678 -6.84827,-0.46939 -8.11782,-0.86076 -9.82265,-3.02814 -1.07686,-1.36899 -1.95791,-3.26771 -1.95791,-4.21936 0,-2.55707 3.85429,-7 6.07257,-7 1.06008,0 1.92741,-0.37119 1.92741,-0.82485 0,-2.52117 -5.50901,-16.33705 -10.00245,-25.084895 -4.95825,-10.008699 -7.37941,-12.997542 -9.03726,-15.14603 -3.27806,-4.566829 -2.80804,-3.695954 -7.85946,-9.345762 l -3.89915,-3.807432 -2.9571,2.186279 c -1.94411,1.437332 -4.97612,2.359937 -8.85086,2.693208 -4.97782,0.428149 -6.61391,0.118564 -10.52822,-1.992245 l -4.63449,-2.499172 -3.6155,3.702615 c -4.45469,4.551348 -3.18713,3.253803 -7.72758,8.556816 l -2.0888,3.06147 c -1.82814,3.127355 -3.59767,5.998235 -6.29408,10.938221 -4.50082,8.256866 -10.50505,23.169117 -10.50505,26.090577 0,0.80916 0.67499,1.4712 1.49998,1.4712 2.57707,0 5.50001,3.81114 5.50001,7.17126 0,5.01458 -2.38394,6.82874 -8.97347,6.82874 -9.23731,0 -15.45484,2.40138 -21.52874,8.31497 -4.24929,4.13714 -5.6679,6.3726 -7.01932,11.06119 -6.8954,23.92269 21.73767,40.38927 40.9005,23.52145 8.26813,-7.27788 11.35865,-17.00085 8.23174,-25.89761 -3.01021,-8.56474 -1.27771,-14 4.46249,-14 4.34044,0 5.86994,0.96824 7.94037,5.02656 4.47118,8.76428 4.26021,22.25302 -0.51194,32.72608 -6.89824,15.13915 -25.6108,25.56143 -42.33719,23.58043 l -4.77509,-0.56553 -2.14656,9.36621 c -4.83608,21.10156 -5.246,44.20763 -1.14192,64.36623 6.13964,30.15692 22.88436,50.43088 47.01094,56.91931 7.40024,1.99018 25.4998,1.99521 33.16389,0.008 v 0.002 0" />
    <path
       style="fill:none;stroke:#000000;stroke-width:1.765;stroke-linecap:round;stroke-linejoin:miter;stroke-miterlimit:4;stroke-dasharray:none;stroke-opacity:1"
       d="M 96.252975,19.694244 84.185663,12.862597"
       id="path7550" />
    <path
       style="fill:none;stroke:#000000;stroke-width:1.765;stroke-linecap:round;stroke-linejoin:miter;stroke-miterlimit:4;stroke-dasharray:none;stroke-opacity:1"
       d="M 95.358342,20.858455 81.993344,17.161401"
       id="path7669" />
    <path
       style="fill:none;stroke:#000000;stroke-width:1.765;stroke-linecap:round;stroke-linejoin:miter;stroke-miterlimit:4;stroke-dasharray:none;stroke-opacity:1"
       d="m 105.9477,19.69424 12.06731,-6.831647"
       id="path7837" />
    <path
       style="fill:none;stroke:#000000;stroke-width:1.765;stroke-linecap:round;stroke-linejoin:miter;stroke-miterlimit:4;stroke-dasharray:none;stroke-opacity:1"
       d="m 106.84233,20.858451 13.365,-3.697054"
       id="path7839" />
    <path
       style="fill:#be9b81;stroke:none;stroke-width:0;stroke-linejoin:round;stroke-miterlimit:4;stroke-dasharray:none;stroke-opacity:1"
       d="m 105.04918,22.356721 c -6.737781,5.518731 -16.896164,5.952242 -24.206248,1.327402 -4.301691,-2.320318 -6.658062,3.565289 -9.002175,5.957723 -0.0546,2.562608 5.613428,2.63258 4.34328,6.061628 0.03363,2.40669 -3.38251,2.622519 -3.331493,5.081014 -2.27937,3.680565 -6.469347,0.12532 -9.608727,0.206514 -5.884475,8.471816 -9.687419,18.397667 -13.728609,27.89752 -0.676115,2.504617 -3.548266,6.601884 0.215605,8.015065 5.058981,1.519564 6.914784,9.273531 2.330097,12.283011 -4.97601,1.512981 -10.486823,0.532845 -15.469037,2.404134 -8.633055,2.579288 -16.196508,9.519088 -19.205766,18.044608 -0.700916,5.68455 -1.467776,12.02755 1.092315,17.35884 4.588546,8.60359 14.149016,14.71979 24.08802,13.44326 9.857934,0.34676 18.250158,-7.16815 23.059425,-15.14862 3.726304,-6.26059 3.240384,-13.84751 0.965029,-20.50719 -0.947381,-3.65029 -1.29547,-10.163779 3.800369,-10.49453 4.859652,-1.225242 8.453904,3.124322 9.577556,7.36695 4.785035,14.81418 0.604735,32.30376 -11.558268,42.36776 -7.589171,6.63122 -17.476996,10.97778 -27.667627,10.09189 -3.189159,0.90082 -9.584292,-2.20947 -10.017325,2.59426 -7.144211,29.49109 -8.665161,61.78111 3.079695,90.31452 8.389433,19.99574 26.42304,37.71643 48.837811,39.6197 12.353508,0.26882 25.473213,0.90876 36.718433,-5.14195 20.95127,-9.92335 32.88487,-32.18661 37.02868,-54.17306 4.52898,-23.14338 3.02354,-47.27946 -2.7359,-70.05851 -0.2185,-4.70676 -5.8834,-2.15282 -8.89608,-2.79129 -11.94816,0.55491 -23.77565,-4.50771 -31.6797,-13.40001 -9.66973,-9.54836 -13.53185,-24.04902 -9.44248,-37.06854 0.96723,-4.602146 3.67313,-10.930823 9.51261,-9.526902 3.99713,0.227976 6.76033,4.512795 5.1044,8.252752 -2.42641,6.3889 -3.71588,13.61194 -0.7767,20.08508 4.4714,10.64179 15.84854,18.88872 27.66503,17.6108 12.06949,-0.13401 23.61468,-11.29429 22.22503,-23.73471 0.64703,-11.66468 -8.26738,-22.348844 -19.53127,-24.721955 -5.41995,-1.973181 -11.89783,-0.685395 -16.81072,-3.915965 -2.53493,-2.278221 -2.95107,-6.206489 -0.24028,-8.500827 1.92011,-1.968709 6.44192,-2.549307 5.25375,-6.264246 -3.50955,-11.064505 -8.75727,-21.573518 -14.29879,-31.740751 -3.17235,-1.72692 -7.68128,2.895887 -10.42309,-0.115596 0.23593,-2.074864 -1.26099,-3.314952 -2.89119,-4.113387 -2.77698,-3.310447 1.91575,-5.512671 4.3147,-6.704549 0.51076,-3.013361 -4.55897,-4.956475 -6.0458,-7.553402 -0.35371,-0.428614 -1.03494,-1.148121 -1.64456,-0.708441 z m 8.42679,28.157286 c 8.85604,-0.283788 14.65213,9.84235 11.01406,17.540668 -2.91802,6.972331 -13.15911,6.637342 -17.43286,1.142968 -4.78389,-4.775283 -4.10514,-13.611127 1.91448,-17.062699 1.31463,-0.9489 2.84441,-1.682658 4.50432,-1.620937 z m -42.813249,1.172841 c 6.71229,0.01201 11.879592,7.630989 8.728122,13.735103 -1.703678,6.593006 -9.723819,11.065404 -15.908042,7.526707 -7.745265,-4.16131 -6.135541,-16.709739 1.596259,-20.062992 1.717925,-0.869014 3.658911,-1.298014 5.583661,-1.198818 z"
       id="path2096"
       transform="matrix(0.26458333,0,0,0.26458333,76.750125,10.35405)" />
  </g>
</svg>
