<?xml version="1.0" encoding="UTF-8" standalone="no"?>
<!-- Created with Inkscape (http://www.inkscape.org/) -->

<svg
   width="48.825363mm"
   height="135.97716mm"
   viewBox="0 0 48.825363 135.97716"
   version="1.1"
   id="svg5"
   inkscape:version="1.1.2 (0a00cf5339, 2022-02-04)"
   sodipodi:docname="mouse03.svg"
   xmlns:inkscape="http://www.inkscape.org/namespaces/inkscape"
   xmlns:sodipodi="http://sodipodi.sourceforge.net/DTD/sodipodi-0.dtd"
   xmlns="http://www.w3.org/2000/svg"
   xmlns:svg="http://www.w3.org/2000/svg">
  <sodipodi:namedview
     id="namedview7"
     pagecolor="#ffffff"
     bordercolor="#666666"
     borderopacity="1.0"
     inkscape:pageshadow="2"
     inkscape:pageopacity="0.0"
     inkscape:pagecheckerboard="0"
     inkscape:document-units="mm"
     showgrid="false"
     showguides="true"
     inkscape:guide-bbox="true"
     inkscape:zoom="1.0633188"
     inkscape:cx="31.034907"
     inkscape:cy="296.71252"
     inkscape:window-width="1850"
     inkscape:window-height="1016"
     inkscape:window-x="0"
     inkscape:window-y="27"
     inkscape:window-maximized="1"
     inkscape:current-layer="layer1"
     fit-margin-top="0"
     fit-margin-left="0"
     fit-margin-right="0"
     fit-margin-bottom="0" />
  <defs
     id="defs2" />
  <g
     inkscape:label="Слой 1"
     inkscape:groupmode="layer"
     id="layer1"
     transform="translate(-76.750125,-10.35405)">
    <path
       id="path854"
       style="fill:#000000;fill-opacity:1;stroke:#000000;stroke-width:5.53701;stroke-miterlimit:4;stroke-dasharray:none;stroke-opacity:1"
       d="m 403.02561,109.90557 c -6.79838,-2.8852 -9.0647,-11.464679 -4.14603,-15.695532 3.08217,-2.651168 5.31134,-2.937233 9.17398,-1.177285 5.06282,2.306778 7.16522,10.582797 3.72207,14.651887 -2.05821,2.43238 -5.93385,3.4161 -8.75002,2.22093 v 0"
       transform="scale(0.26458333)" />
    <path
       id="path16484"
       style="fill:#000000;fill-opacity:1;stroke:#000000;stroke-width:5.53701;stroke-miterlimit:4;stroke-dasharray:none;stroke-opacity:1"
       d="m 355.02688,110.38035 c -6.10382,-3.14635 -5.90631,-11.987066 0.35301,-15.803807 4.04995,-2.469521 6.73655,-2.430278 10.01204,0.14623 7.50648,5.904597 -1.85416,20.044767 -10.36513,15.657577 h 8e-5 v 0"
       transform="scale(0.26458333)" />
    <path
       id="path16480"
       style="fill:#000000;fill-opacity:1;stroke:#000000;stroke-width:1.51614;stroke-miterlimit:4;stroke-dasharray:none;stroke-opacity:1"
       d="m 104.66722,90.394482 c 0,0 -0.2185,2.746171 -0.23656,4.050833 -0.0385,2.783845 -0.59397,6.052385 1.12287,13.572835 1.25286,5.48805 4.31083,11.1575 5.21661,18.40243 0.31876,2.54957 0.32687,5.62303 -0.0378,8.73928 -0.67035,5.72903 -3.75969,10.72506 -3.6227,10.34672 0.7807,-2.15612 1.42096,-4.67281 2.01913,-7.18522 0.87727,-3.68464 0.64639,-8.29401 0.0931,-11.04784 -0.68451,-3.40727 -0.95217,-3.73421 -3.4455,-8.97075 -2.87997,-6.0486 -4.06372,-9.60946 -4.65687,-12.66286 -0.59412,-3.05838 -0.86167,-4.83874 -1.14911,-10.455261 l -0.184522,-4.927703 z"
       sodipodi:nodetypes="csssssssssccc" />
    <path
       id="path16478"
       style="fill:#000000;fill-opacity:1;stroke:none;stroke-width:5.53701;stroke-miterlimit:4;stroke-dasharray:none;stroke-opacity:1"
       transform="scale(0.26458333)"
       d="m 377.14382,341.12858 c -2.46564,-0.35241 -7.38339,-1.14788 -7.38339,-1.14788 -46.17376,-7.17846 -72.7833,-51.46651 -68.36678,-113.7874 0.83856,-11.83276 4.00222,-30.75782 6.03589,-36.10677 0.73974,-1.94567 0.20009,-2.90552 -3.60601,-6.41387 -2.56036,-2.36005 -5.86683,-6.95339 -7.72588,-10.73277 -3.04166,-6.18359 -3.24993,-7.28086 -3.24993,-17.12257 0,-9.29691 0.30833,-11.1733 2.66041,-16.19074 4.45912,-9.51213 14.22639,-18.45657 23.83959,-21.83127 3.35838,-1.17895 3.58576,-1.57796 5.6194,-9.86112 1.16567,-4.74785 4.17245,-13.019954 6.68173,-18.382453 7.81856,-15.291156 2.63422,-6.025879 9.30857,-17.02729 9.87772,-12.547374 3.60263,-4.857365 12.6667,-16.061552 10.12497,-10.213444 17.04794,-13.944586 26.90714,-14.501684 11.53353,-0.6517 20.12504,3.655525 31.81648,15.950668 7.12381,8.262081 3.97244,4.317974 8.64314,10.748674 0.88959,1.357678 2.91073,4.05298 3.99337,5.887967 5.025,8.386636 2.60761,4.206471 7.08114,12.983887 4.1201,8.210687 7.78563,19.246153 8.71528,24.820493 0.63776,3.82403 1.02494,4.20329 6.90618,6.76545 9.30373,4.05313 15.87908,10.32259 20.38216,19.43398 3.61399,7.31242 3.7787,8.0839 3.77851,17.69758 -1.9e-4,9.02144 -0.29178,10.64615 -2.84508,15.84931 -1.56464,3.18859 -5.08361,8.03622 -7.81991,10.7725 -4.79241,4.79242 -4.9349,5.0967 -3.88147,8.28859 5.36104,16.24416 7.58688,50.34658 4.61065,70.64143 -5.38242,36.70303 -23.21832,62.6106 -50.76333,73.7365 -3.44133,1.39004 -8.05534,3.37354 -11.07314,4.29747 0,0 -9.4986,1.14358 -11.70128,1.37901 -3.90015,0.1938 -7.32822,0.44146 -11.23014,-0.0861 z m 21.47959,-16.8983 c 22.96686,-5.95132 39.22839,-24.25093 46.29105,-52.09278 3.26385,-12.86646 4.6097,-30.89174 3.40769,-45.63934 -0.90402,-11.09152 -4.13699,-29.53248 -5.5895,-31.88264 -0.39938,-0.64623 -2.54786,-0.83619 -5.50125,-0.48643 -24.24446,2.8714 -48.00756,-19.73308 -45.54206,-43.3216 0.67846,-6.49123 3.04335,-13.66865 5.33971,-16.20611 2.21322,-2.44559 7.78084,-2.33749 10.31868,0.20035 2.38515,2.38514 2.53455,5.47642 0.49999,10.34576 -7.70797,18.4478 12.56992,39.16459 32.59813,33.3037 10.71586,-3.1358 16.9203,-11.30128 16.87993,-22.21518 -0.0556,-15.00669 -10.47685,-25.04072 -27.19748,-26.18678 -6.84827,-0.46939 -8.11782,-0.86076 -9.82265,-3.02814 -1.07686,-1.36899 -1.95791,-3.26771 -1.95791,-4.21936 0,-2.55707 3.85429,-7 6.07257,-7 1.06008,0 1.92741,-0.37119 1.92741,-0.82485 0,-2.52117 -5.50901,-16.33705 -10.00245,-25.084895 -4.95825,-10.008699 -7.37941,-12.997542 -9.03726,-15.14603 -3.27806,-4.566829 -2.80804,-3.695954 -7.85946,-9.345762 l -3.89915,-3.807432 -2.9571,2.186279 c -1.94411,1.437332 -4.97612,2.359937 -8.85086,2.693208 -4.97782,0.428149 -6.61391,0.118564 -10.52822,-1.992245 l -4.63449,-2.499172 -3.6155,3.702615 c -4.45469,4.551348 -3.18713,3.253803 -7.72758,8.556816 l -2.0888,3.06147 c -1.82814,3.127355 -3.59767,5.998235 -6.29408,10.938221 -4.50082,8.256866 -10.50505,23.169117 -10.50505,26.090577 0,0.80916 0.67499,1.4712 1.49998,1.4712 2.57707,0 5.50001,3.81114 5.50001,7.17126 0,5.01458 -2.38394,6.82874 -8.97347,6.82874 -9.23731,0 -15.45484,2.40138 -21.52874,8.31497 -4.24929,4.13714 -5.6679,6.3726 -7.01932,11.06119 -6.8954,23.92269 21.73767,40.38927 40.9005,23.52145 8.26813,-7.27788 11.35865,-17.00085 8.23174,-25.89761 -3.01021,-8.56474 -1.27771,-14 4.46249,-14 4.34044,0 5.86994,0.96824 7.94037,5.02656 4.47118,8.76428 4.26021,22.25302 -0.51194,32.72608 -6.89824,15.13915 -25.6108,25.56143 -42.33719,23.58043 l -4.77509,-0.56553 -2.14656,9.36621 c -4.83608,21.10156 -5.246,44.20763 -1.14192,64.36623 6.13964,30.15692 22.88436,50.43088 47.01094,56.91931 7.40024,1.99018 25.4998,1.99521 33.16389,0.008 v 0.002 0" />
    <path
       style="fill:none;stroke:#000000;stroke-width:1.765;stroke-linecap:round;stroke-linejoin:miter;stroke-miterlimit:4;stroke-dasharray:none;stroke-opacity:1"
       d="M 96.252975,19.694244 84.185663,12.862597"
       id="path7550" />
    <path
       style="fill:none;stroke:#000000;stroke-width:1.765;stroke-linecap:round;stroke-linejoin:miter;stroke-miterlimit:4;stroke-dasharray:none;stroke-opacity:1"
       d="M 95.358342,20.858455 81.993344,17.161401"
       id="path7669" />
    <path
       style="fill:none;stroke:#000000;stroke-width:1.765;stroke-linecap:round;stroke-linejoin:miter;stroke-miterlimit:4;stroke-dasharray:none;stroke-opacity:1"
       d="m 105.9477,19.69424 12.06731,-6.831647"
       id="path7837" />
    <path
       style="fill:none;stroke:#000000;stroke-width:1.765;stroke-linecap:round;stroke-linejoin:miter;stroke-miterlimit:4;stroke-dasharray:none;stroke-opacity:1"
       d="m 106.84233,20.858451 13.365,-3.697054"
       id="path7839" />
    <path
       style="fill:#be9b81;stroke:none;stroke-width:0;stroke-linejoin:round"
       d="m 101.00488,25.019322 c -7.083798,3.321951 -15.340022,1.981108 -22.001425,-1.820288 -2.363969,1.781664 -11.171306,7.098269 -4.412041,8.899392 2.466329,1.723149 2.445499,5.804476 -0.543698,6.899095 -0.335035,4.473985 -5.807249,3.65961 -8.941639,2.615631 -4.796568,-0.429233 -5.000183,6.527342 -7.330568,9.360098 -3.069085,8.120501 -9.003455,15.865593 -9.123663,24.768013 1.030135,2.540645 5.179918,1.337293 5.341471,4.858389 1.60651,3.692639 0.551221,9.30913 -4.411557,9.097407 -11.47807,0.621256 -23.841751,4.859338 -29.82309,15.402091 -7.585463,11.90632 -1.157886,29.28191 12.123011,33.81953 17.759521,7.18806 40.072138,-10.57581 35.612262,-29.63709 -0.532994,-4.56856 -4.371817,-12.33994 1.926823,-14.486995 4.347775,-1.548861 8.748019,0.745435 10.045298,5.098381 3.386121,9.711974 2.742348,20.543424 -0.510366,30.227344 -6.658557,15.54142 -23.820661,25.83409 -40.61386,24.21145 -6.434467,-1.94147 -8.524013,2.4761 -8.787851,8.10696 -5.146187,22.18868 -5.000514,45.54387 -0.925717,67.88219 4.760061,24.04749 20.959083,47.3881 45.246784,54.57901 12.251823,3.14452 25.447892,2.23656 37.665836,-0.57308 24.23602,-7.2206 39.26008,-31.05784 44.24689,-54.6988 4.963,-24.1405 3.31069,-49.44595 -2.49378,-73.2811 -2.85573,-3.01558 -8.86685,-0.87839 -13.00171,-1.91107 -23.49144,-0.84238 -43.19235,-25.54425 -37.33854,-48.51199 1.1356,-4.9897 3.34401,-12.924726 10.15394,-11.496659 6.934,0.225683 5.93844,8.916889 3.77834,13.214079 -4.73979,15.58292 9.57847,32.77654 25.53546,32.65865 12.57201,1.2369 24.82468,-9.13116 24.79891,-21.94631 1.19344,-11.99847 -7.4562,-23.28007 -19.04048,-26.060803 -6.04032,-2.713398 -15.18055,-0.170708 -19.14517,-6.573979 -1.34431,-4.087723 2.38363,-8.070527 6.06151,-9.073889 2.30089,-3.797832 -1.65909,-8.429783 -2.4738,-12.240404 -3.6296,-7.603868 -6.23445,-16.148845 -11.5944,-22.684888 -3.29044,-1.133586 -8.28125,2.901963 -10.30089,-1.563133 -1.41296,-2.179436 -5.53618,-4.822648 -1.98377,-7.130534 1.62116,-1.215724 4.81611,-2.857263 2.21154,-4.999824 -3.03033,-3.131619 -5.53482,-7.014438 -9.95006,-3.006874 z m 13.01387,25.434444 c 10.99733,-0.623106 16.35884,17.191466 6.21396,21.988569 -9.76687,5.033045 -21.022322,-8.444503 -14.667,-17.223859 1.79848,-2.861821 5.04075,-4.797565 8.45304,-4.76471 z m -43.528954,0.872489 c 7.534252,-0.261047 11.958263,8.587823 8.72122,15.010491 -2.373806,8.980173 -16.867909,11.096369 -20.083787,1.618238 -3.170847,-7.773302 3.073923,-16.700479 11.362567,-16.628729 z"
       id="path3249"
       transform="matrix(0.26458333,0,0,0.26458333,76.750125,10.35405)" />
  </g>
</svg>
